<?xml version="1.0" encoding="UTF-8"?>
<svg id="Layer_2" data-name="Layer 2" xmlns="http://www.w3.org/2000/svg" xmlns:xlink="http://www.w3.org/1999/xlink" viewBox="0 0 83.45 90.93">
  <defs>
    <style>
      .cls-1 {
        fill: url(#linear-gradient-2);
      }

      .cls-2 {
        fill: #9fcff2;
      }

      .cls-3 {
        fill: #c7e1f1;
      }

      .cls-4 {
        fill: url(#linear-gradient);
      }
    </style>
    <linearGradient id="linear-gradient" x1="29.73" y1="865.15" x2="45.18" y2="907.6" gradientTransform="translate(0 931.32) scale(1 -1)" gradientUnits="userSpaceOnUse">
      <stop offset=".15" stop-color="#c7e1f1"/>
      <stop offset=".8" stop-color="#c7e1f1" stop-opacity="0"/>
    </linearGradient>
    <linearGradient id="linear-gradient-2" x1="69.01" y1="865.44" x2="36.63" y2="871.15" gradientTransform="translate(0 931.32) scale(1 -1)" gradientUnits="userSpaceOnUse">
      <stop offset=".19" stop-color="#c7e1f1"/>
      <stop offset=".49" stop-color="#b6daf1"/>
      <stop offset=".82" stop-color="#9fcff2"/>
    </linearGradient>
  </defs>
  <g id="Layer_1-2" data-name="Layer 1">
    <g>
      <path class="cls-2" d="M64.49,17.05c2.08,1.08,3.78,2.97,4.34,5.59.16.73.29,1.67.28,2.3-.02,2.19,0,12.18,0,22.03-3.25-1.87-7.02-2.94-11.05-2.94-6.13,0-11.67,2.48-15.68,6.5-4.01,4.02-6.5,9.56-6.5,15.68s2.27,11.19,5.99,15.16c-3.3.94-6.66,1.45-10.03,1.28-11.58-.58-19.07-5.85-22.95-11.64-9.31-13.94,1.53-28.65,1.53-28.65C-.19,36.04-1.04,24.93.72,16.92,3.3,5.22,14.3-.16,20.69,0c12.88.34,36.43,13.21,43.81,17.05Z"/>
      <path class="cls-4" d="M57.14,29.83c1.22.63,2.21,1.73,2.54,3.27.1.43.17.98.16,1.34-.01,1.28,0,7.12,0,12.88-1.9-1.09-4.11-1.72-6.46-1.72-3.58,0-6.82,1.45-9.17,3.8-2.35,2.35-3.8,5.59-3.8,9.17s1.33,6.54,3.5,8.86c-1.93.55-3.9.84-5.86.75-6.77-.34-11.15-3.42-13.42-6.81-5.45-8.15.9-16.75.9-16.75-6.21-3.69-6.71-10.18-5.68-14.87,1.51-6.84,7.94-9.99,11.68-9.89,7.53.2,21.3,7.72,25.62,9.97h0Z"/>
      <path class="cls-1" d="M69.12,64.94c.05,1.13-.61,1.5-1.73,2.41-6.33,4.35-15.57,11.17-25.51,14.01-3.71-3.97-5.99-9.3-5.99-15.16s2.48-11.67,6.5-15.68c4.02-4.01,9.56-6.5,15.68-6.5,4.02,0,7.79,1.07,11.05,2.94,0,7.03.01,13.99,0,17.97Z"/>
      <path class="cls-3" d="M83.45,68.75c0,12.25-9.93,22.18-22.18,22.18-6.13,0-11.67-2.48-15.68-6.5-.17-.17-.34-.35-.51-.53,9.93-2.84,19.18-9.66,25.51-14.01,1.12-.92,1.78-1.28,1.73-2.41,0-3.98,0-10.94,0-17.97,1.7.98,3.26,2.18,4.64,3.55,4.02,4.02,6.5,9.56,6.5,15.68h0Z"/>
    </g>
  </g>
</svg>